<svg width="29" height="43" viewBox="0 0 29 43" fill="none" xmlns="http://www.w3.org/2000/svg">
<path d="M8.42 36.76C8.42 34.12 8.76 31.9 9.44 30.1C10.12 28.26 10.94 26.8 11.9 25.72C12.9 24.6 14.18 23.38 15.74 22.06C17.1 20.9 18.18 19.88 18.98 19C19.78 18.12 20.44 17.04 20.96 15.76C21.52 14.44 21.8 12.86 21.8 11.02C21.8 8.9 21.36 7.2 20.48 5.92C19.6 4.6 18.22 3.82 16.34 3.58C14.5 3.3 13.1 3.12 12.14 3.04C11.18 2.92 9.78 2.86 7.94 2.86V2.26C8.98 2.26 9.96 2.18 10.88 2.02C11.84 1.86 12.94 1.62 14.18 1.3C16.5 0.699997 18.4 0.399998 19.88 0.399998C22.72 0.399998 24.8 1.36 26.12 3.28C27.48 5.2 28.16 7.74 28.16 10.9C28.16 13.5 27.72 15.64 26.84 17.32C25.96 18.96 24.86 20.24 23.54 21.16C22.26 22.04 20.54 23.04 18.38 24.16C16.3 25.2 14.62 26.18 13.34 27.1C12.1 27.98 11.06 29.2 10.22 30.76C9.38 32.32 8.96 34.32 8.96 36.76H8.42ZM0.38 0.999997C0.98 0.999997 2.04 1.2 3.56 1.6C4.96 2.04 6.02 2.26 6.74 2.26V43H0.38V0.999997Z" fill="#FF06AC"/>
</svg>
